<svg xmlns="http://www.w3.org/2000/svg" xmlns:xlink="http://www.w3.org/1999/xlink" width="1680" zoomAndPan="magnify" viewBox="0 0 1260 708.749996" height="945" preserveAspectRatio="xMidYMid meet" version="1.0"><defs><clipPath id="ce4b04076c"><path d="M 81 24 L 999 24 L 999 623 L 81 623 Z M 81 24 " clip-rule="nonzero"/></clipPath><clipPath id="3e097d0daf"><path d="M 44.066406 432.191406 L 913.949219 -68.921875 L 1075.25 211.078125 L 205.367188 712.191406 Z M 44.066406 432.191406 " clip-rule="nonzero"/></clipPath><clipPath id="2f1f80eac8"><path d="M 44.066406 432.191406 L 913.949219 -68.921875 L 1075.25 211.078125 L 205.367188 712.191406 Z M 44.066406 432.191406 " clip-rule="nonzero"/></clipPath><clipPath id="baaa885d81"><path d="M 765.222656 259.226562 C 722.6875 283.730469 611.035156 284.953125 549.210938 285.515625 C 535.832031 285.644531 524.367188 285.804688 516 286.078125 C 467.417969 287.917969 448.351562 310.082031 423.972656 338.144531 C 401.863281 363.574219 376.796875 392.417969 322.964844 413.765625 C 283.375 429.5625 258.335938 415.375 234.28125 401.570312 C 217.019531 391.996094 200.878906 382.726562 179.847656 384.042969 C 124.386719 387.757812 113.507812 421.5 102.933594 454.121094 C 97.714844 470.386719 92.738281 485.761719 82.558594 497.6875 L 81.554688 496.9375 C 91.453125 485.175781 96.429688 469.800781 101.585938 453.757812 C 112.367188 420.832031 123.507812 386.5625 179.699219 382.800781 C 201.015625 381.320312 217.460938 390.792969 234.804688 400.507812 C 258.699219 414.027344 283.429688 428.015625 322.453125 412.542969 C 375.996094 391.363281 400.925781 362.601562 422.890625 337.253906 C 446.4375 310.046875 466.761719 286.78125 515.851562 284.835938 C 524.140625 284.421875 535.6875 284.402344 549.066406 284.273438 C 615.144531 283.535156 737.894531 282.167969 772.125 252.785156 C 779.472656 246.46875 787.191406 240.128906 795.25 233.398438 C 831.921875 202.992188 873.648438 168.53125 892.671875 128.207031 C 894.632812 124.042969 896.449219 119.964844 898.410156 115.804688 C 914.863281 80.558594 931.621094 44.191406 964.480469 25.257812 C 964.910156 25.011719 965.335938 24.769531 965.90625 24.441406 L 966.558594 25.578125 C 966.132812 25.824219 965.707031 26.070312 965.28125 26.316406 C 932.703125 45.082031 916.007812 81.226562 899.839844 116.308594 C 897.878906 120.46875 896.058594 124.550781 894.097656 128.710938 C 874.875 169.34375 833.148438 203.800781 796.414062 234.433594 C 788.355469 241.164062 780.636719 247.503906 773.289062 253.820312 C 770.75 255.664062 768.210938 257.503906 765.222656 259.226562 Z M 748.164062 266.777344 C 752.777344 263.933594 757.53125 261.003906 762.429688 257.992188 C 812.113281 227.476562 868.316406 192.824219 896.882812 138.476562 C 901.515625 129.742188 905.878906 120.21875 910.125 111.140625 C 924.820312 79.75 939.960938 47.15625 968.839844 30.519531 C 968.980469 30.4375 969.121094 30.355469 969.265625 30.273438 L 968.609375 29.132812 C 968.46875 29.214844 968.324219 29.296875 968.183594 29.378906 C 938.875 46.261719 923.738281 78.855469 908.980469 110.472656 C 904.738281 119.550781 900.289062 128.933594 895.738281 137.808594 C 867.378906 191.851562 811.171875 226.503906 761.773438 256.855469 C 756.875 259.863281 752.121094 262.792969 747.507812 265.640625 C 746.652344 266.132812 745.941406 266.542969 745.089844 267.035156 C 695.441406 295.636719 563.191406 305.503906 512.742188 309.367188 L 512.152344 309.328125 C 465.425781 312.75 442.46875 333.742188 416.101562 358.027344 C 392.453125 379.796875 365.800781 404.246094 315.992188 422.707031 C 279.792969 436.171875 255.859375 423.242188 232.539062 410.71875 C 215.441406 401.433594 199.261719 392.753906 178.761719 394.332031 C 125.546875 398.652344 115.585938 433 106.007812 466.367188 C 101.503906 482.226562 97.09375 497.269531 88.195312 508.460938 L 89.195312 509.210938 C 98.296875 497.714844 102.5625 482.753906 107.210938 466.8125 C 116.667969 433.890625 126.507812 399.992188 179.074219 395.855469 C 199.269531 394.074219 215.304688 402.835938 232.320312 411.984375 C 255.722656 424.648438 279.960938 437.78125 316.730469 423.988281 C 366.679688 405.445312 393.535156 380.691406 417.265625 359.0625 C 443.492188 334.859375 466.164062 314.03125 512.523438 310.628906 L 513.113281 310.667969 C 563.5625 306.808594 696.035156 296.996094 745.96875 268.230469 C 746.679688 267.820312 747.535156 267.332031 748.164062 266.777344 Z M 900.03125 148.21875 C 906.628906 136.648438 912.207031 123.964844 917.886719 111.785156 C 931.484375 81.78125 945.46875 50.800781 972.417969 35.089844 L 971.761719 33.949219 C 944.386719 49.910156 930.261719 80.972656 916.601562 111.199219 C 911.144531 123.4375 905.34375 136.0625 898.890625 147.550781 C 859.644531 216.578125 788.015625 249.125 724.761719 277.796875 L 722.832031 278.71875 C 668.261719 303.710938 557.710938 328.554688 508.386719 334.042969 C 464.03125 338.941406 438.640625 357.359375 409.371094 378.578125 C 384.265625 396.832031 355.765625 417.417969 309.695312 433.15625 C 276.238281 444.472656 253.101562 432.601562 230.582031 421.132812 C 213.667969 412.496094 197.734375 404.242188 178.132812 406.0625 C 127.21875 410.761719 118.097656 446.898438 110.066406 479 C 106.351562 494.589844 102.65625 509.226562 94.75 519.84375 L 95.75 520.59375 C 103.796875 509.894531 107.554688 495.035156 111.410156 479.363281 C 119.746094 446.140625 128.382812 411.796875 178.421875 407.222656 C 197.515625 405.507812 213.367188 413.617188 230.195312 422.109375 C 252.800781 433.722656 276.382812 445.714844 310.269531 434.152344 C 356.480469 418.332031 385.121094 397.664062 410.230469 379.410156 C 439.355469 358.273438 464.605469 339.9375 508.59375 335.058594 C 557.917969 329.574219 668.609375 304.648438 723.324219 279.574219 L 725.253906 278.648438 C 749.898438 267.484375 775.902344 255.726562 800.65625 241.464844 C 839.71875 219.152344 875.90625 190.539062 900.03125 148.21875 Z M 903.179688 157.960938 C 911.21875 144.617188 917.742188 129.300781 924.085938 114.65625 C 937.277344 83.941406 949.761719 54.960938 975.40625 39.617188 L 974.75 38.480469 C 963.027344 45.425781 952.980469 55.949219 943.929688 70.824219 C 935.8125 84.027344 929.289062 99.34375 923.027344 114.128906 C 916.683594 128.773438 910.21875 143.867188 902.179688 157.210938 C 855.550781 234.472656 779.230469 264.796875 698.441406 291.632812 C 677.082031 298.632812 653.003906 308.144531 627.625 318.027344 C 582.90625 335.453125 536.679688 353.554688 504.96875 358.371094 C 463.492188 364.644531 435.644531 380.117188 403.390625 398.128906 C 376.765625 413.085938 346.359375 430.035156 303.664062 443.074219 C 273.027344 452.386719 250.691406 441.570312 228.964844 431.15625 C 212.179688 423.394531 196.433594 415.792969 177.785156 417.628906 C 129.398438 422.769531 121.5625 459.492188 114.652344 491.894531 C 111.425781 507.015625 108.296875 521.324219 101.53125 531.285156 L 102.53125 532.035156 C 109.582031 521.910156 112.628906 507.460938 115.996094 492.257812 C 122.929688 460.21875 130.644531 423.945312 178.15625 418.933594 C 196.4375 417.117188 212.101562 424.578125 228.6875 432.644531 C 250.492188 443.199219 273.277344 454.136719 304.195312 444.660156 C 347.039062 431.539062 377.445312 414.589844 404.210938 399.550781 C 436.324219 381.621094 463.945312 366.089844 505.28125 359.894531 C 536.992188 355.082031 583.359375 336.898438 628.21875 319.390625 C 653.597656 309.507812 677.675781 299.992188 699.035156 292.996094 C 738.496094 279.925781 776.957031 266.109375 811.382812 246.273438 C 847.355469 225.175781 879.128906 197.777344 903.179688 157.960938 Z M 906.1875 167.789062 C 915.605469 152.886719 922.671875 135.554688 929.476562 118.75 C 941.875 88.304688 953.484375 59.449219 978.273438 44.597656 L 977.621094 43.460938 C 952.484375 58.699219 940.730469 87.636719 928.273438 118.308594 C 921.46875 135.109375 914.546875 152.363281 905.046875 167.117188 C 847.734375 257.734375 755.457031 285.691406 673.621094 304.792969 C 639.375 312.773438 607.9375 330.886719 577.410156 348.28125 C 550.238281 363.933594 524.550781 378.542969 501.066406 383.167969 C 463.171875 390.40625 432.019531 403.425781 398.996094 417.144531 C 368.78125 429.8125 337.488281 442.914062 297 453.542969 C 269.410156 460.910156 248.015625 451.066406 227.3125 441.773438 C 210.609375 434.152344 194.820312 427.140625 176.988281 429.078125 C 131.046875 434.511719 124.578125 471.964844 118.726562 504.894531 C 116.214844 519.605469 113.714844 533.359375 107.863281 542.605469 L 109.007812 543.273438 C 115 533.945312 117.335938 519.90625 119.992188 505.113281 C 125.722656 472.632812 132.292969 435.6875 177.21875 430.460938 C 194.746094 428.324219 210.386719 435.417969 226.867188 442.976562 C 247.878906 452.472656 269.414062 462.234375 297.371094 454.847656 C 338 444.136719 369.292969 431.035156 399.511719 418.363281 C 432.308594 404.585938 463.460938 391.566406 501.355469 384.324219 C 525.0625 379.761719 550.8125 364.929688 578.066406 349.417969 C 608.367188 331.964844 639.890625 313.992188 673.769531 306.035156 C 719.550781 295.386719 768.621094 281.898438 813.007812 256.328125 C 848.289062 236.003906 880.691406 208.054688 906.1875 167.789062 Z M 909.195312 177.613281 C 919.933594 161.386719 927.257812 142.199219 934.320312 123.539062 C 945.902344 92.992188 957.003906 64.242188 980.980469 49.292969 L 980.324219 48.15625 C 955.917969 63.351562 944.902344 92.242188 933.035156 122.953125 C 925.890625 141.46875 918.566406 160.65625 907.972656 176.800781 C 877.871094 222.5625 839.171875 256.035156 789.648438 279.257812 C 742.621094 301.234375 692.011719 311.0625 648.863281 317.730469 C 608.847656 323.917969 581.015625 348.289062 556.386719 369.675781 C 537.082031 386.480469 518.828125 402.492188 497.28125 407.515625 C 467.613281 414.5625 439.277344 422.929688 409.351562 431.832031 C 372.492188 442.832031 334.472656 454.125 290.539062 463.707031 C 266 469.128906 245.480469 460.484375 225.863281 452.082031 C 209.117188 445.054688 193.355469 438.410156 176.277344 440.667969 C 132.859375 446.542969 127.339844 486.289062 122.96875 518.175781 C 121.003906 532.191406 119.214844 545.539062 114.417969 553.984375 L 115.480469 554.511719 C 120.335938 545.839844 122.125 532.496094 124.152344 518.253906 C 128.820312 485.246094 133.882812 447.65625 176.648438 441.96875 C 193.359375 439.730469 209.125 446.378906 225.644531 453.34375 C 245.628906 461.726562 266.226562 470.511719 291.132812 465.070312 C 335.066406 455.488281 373.085938 444.195312 409.949219 433.191406 C 439.871094 424.292969 468.128906 415.78125 497.875 408.875 C 519.566406 403.769531 537.960938 387.679688 557.550781 370.710938 C 582.039062 349.40625 609.730469 325.117188 649.457031 319.09375 C 692.75 312.34375 743.441406 302.65625 790.609375 280.601562 C 798.703125 276.886719 806.40625 272.828125 813.804688 268.566406 C 852.335938 245.988281 883.816406 216.109375 909.195312 177.613281 Z M 912.347656 187.355469 C 924.199219 170.105469 931.699219 148.921875 938.960938 128.636719 C 950.011719 97.828125 960.441406 68.894531 984.050781 53.964844 L 983.476562 52.96875 C 959.582031 68.0625 948.953125 97.300781 937.980469 128.25 C 930.722656 148.539062 923.136719 169.582031 911.425781 186.75 C 835.816406 297.566406 728.886719 321.460938 624.554688 330.785156 C 580.214844 334.730469 559.421875 363.757812 541.144531 389.257812 C 527.484375 408.304688 514.71875 426.269531 494.027344 432.125 C 432.609375 449.507812 356.796875 462.296875 284.667969 473.910156 C 263.175781 477.386719 243.90625 469.917969 225.308594 462.632812 C 208.363281 455.910156 192.335938 449.796875 175.929688 452.234375 C 134.675781 458.570312 130.742188 499.109375 127.597656 531.804688 C 126.28125 545.636719 125.082031 557.695312 121.34375 565.34375 L 122.402344 565.871094 C 126.203125 557.996094 127.402344 545.9375 128.78125 531.882812 C 132.027344 499.695312 135.839844 459.605469 176.21875 453.394531 C 192.398438 450.894531 208.144531 457.171875 225.007812 463.753906 C 243.828125 471.101562 263.179688 478.710938 285.039062 475.210938 C 357.3125 463.515625 432.980469 450.808594 494.539062 433.34375 C 515.597656 427.46875 528.566406 409.195312 542.367188 390.066406 C 560.503906 364.652344 581.09375 335.925781 624.925781 332.089844 C 689.234375 326.304688 754.402344 315.101562 812.871094 281.417969 C 848.984375 260.234375 883.109375 230.34375 912.347656 187.355469 Z M 915.210938 197.261719 C 928.179688 178.992188 935.738281 156.261719 943.257812 134.117188 C 953.777344 103.046875 963.734375 73.625 986.835938 58.800781 L 986.261719 57.804688 C 962.734375 72.875 952.71875 102.519531 942.136719 133.816406 C 934.675781 155.734375 927.121094 178.464844 914.292969 196.65625 C 827.910156 319.363281 711.96875 340.113281 599.59375 344.027344 C 551.4375 345.621094 538.398438 378.902344 526.894531 408.265625 C 518.457031 429.800781 510.464844 450.132812 490.121094 456.921875 C 446.269531 471.574219 381.242188 476.445312 323.832031 480.71875 C 307.648438 481.894531 292.417969 483.085938 278.230469 484.441406 C 260.089844 486.171875 242.351562 479.71875 225.144531 473.527344 C 207.546875 466.992188 190.949219 461.203125 175.074219 463.90625 C 136.0625 470.84375 133.625 514.308594 131.824219 546.042969 C 131.113281 558.957031 130.523438 570.097656 127.757812 576.808594 L 128.960938 577.25 C 131.785156 570.316406 132.519531 559.09375 133.148438 546.039062 C 135.089844 512.898438 137.367188 471.796875 175.363281 465.066406 C 191.015625 462.304688 207.328125 468.253906 224.757812 474.507812 C 241.96875 480.699219 259.933594 487.210938 278.4375 485.457031 C 292.625 484.105469 307.9375 483.054688 324.039062 481.734375 C 381.59375 477.378906 446.761719 472.429688 490.613281 457.777344 C 511.464844 450.882812 519.578125 430.101562 528.074219 408.34375 C 539.964844 378 552.378906 346.597656 599.71875 344.902344 C 671.207031 342.375 744.28125 333.054688 810.148438 295.113281 C 848.074219 273.457031 883.519531 242.234375 915.210938 197.261719 Z M 918.359375 207.007812 C 932.304688 187.796875 940.058594 163.433594 947.492188 139.824219 C 957.542969 108.265625 966.96875 78.585938 989.847656 63.699219 L 989.273438 62.703125 C 965.96875 77.835938 956.5625 107.882812 946.371094 139.523438 C 938.855469 162.988281 931.242188 187.269531 917.441406 206.398438 C 873.847656 266.5625 822.410156 307.1875 759.8125 330.742188 C 709.152344 349.695312 652.121094 357.917969 575.199219 356.941406 C 523.535156 356.390625 518.425781 391.921875 513.535156 426.191406 C 510.117188 450.519531 506.839844 473.441406 486.5625 481.332031 C 446.011719 497.113281 371.800781 495.90625 312.316406 494.929688 C 297.589844 494.699219 283.824219 494.480469 271.910156 494.523438 C 257.207031 494.65625 241.449219 489.335938 226.21875 484.277344 C 207.542969 478.171875 190.132812 472.285156 174.363281 475.496094 C 137.367188 482.976562 136.789062 528.023438 136.234375 560.933594 C 136.109375 572.5625 135.960938 582.5 134.171875 588.269531 L 135.292969 588.570312 C 137.144531 582.578125 137.210938 572.5 137.476562 560.789062 C 137.910156 528.324219 138.671875 483.929688 174.570312 476.515625 C 189.832031 473.40625 207.386719 479.210938 225.691406 485.335938 C 240.921875 490.394531 256.824219 495.632812 271.75 495.5625 C 283.664062 495.519531 297.429688 495.738281 312.15625 495.96875 C 371.867188 497.003906 446.078125 498.210938 486.914062 482.265625 C 507.613281 474.128906 511.015625 450.761719 514.636719 426.128906 C 519.40625 392.308594 524.476562 357.363281 575.042969 357.980469 C 652.246094 358.792969 709.359375 350.710938 760.160156 331.675781 C 776.859375 325.46875 792.816406 317.980469 808.039062 309.210938 C 850.007812 285.035156 886.402344 251.1875 918.359375 207.007812 Z M 921.511719 216.75 C 936.429688 196.597656 944.238281 170.6875 951.726562 145.535156 C 961.164062 113.570312 970.265625 83.316406 992.917969 68.371094 L 992.34375 67.375 C 969.347656 82.710938 960.328125 113.105469 950.605469 145.230469 C 943.179688 170.164062 935.449219 196.214844 920.59375 216.140625 C 872.496094 280.984375 816.503906 324.230469 749.566406 347.824219 C 695.097656 367.074219 631.894531 374.117188 550.523438 370.023438 C 532.152344 369.046875 519.273438 372.675781 510.875 381.117188 C 497.054688 394.949219 498.445312 419.730469 499.933594 443.691406 C 501.472656 471.035156 503.070312 496.832031 482.941406 505.964844 C 441.972656 524.636719 343.128906 513.558594 283.96875 506.902344 C 277.308594 506.191406 271.011719 505.460938 265.613281 504.972656 C 254.734375 503.847656 242.523438 500.082031 229.558594 495.992188 C 209.925781 489.871094 189.621094 483.570312 173.730469 487.230469 C 138.328125 495.496094 140.046875 544.527344 141.074219 576.902344 C 141.351562 586.597656 141.625 594.964844 140.808594 599.792969 L 142.070312 600.011719 C 143.03125 595.101562 142.675781 586.589844 142.398438 576.898438 C 141.390625 544.890625 139.855469 496.511719 174.164062 488.304688 C 189.6875 484.667969 209.992188 490.972656 229.398438 497.03125 C 242.367188 501.121094 254.578125 504.886719 265.597656 505.929688 C 271.078125 506.558594 277.289062 507.148438 283.953125 507.859375 C 343.113281 514.515625 442.324219 525.574219 483.433594 506.816406 C 484.371094 506.46875 485.222656 505.976562 486.078125 505.484375 C 504.144531 495.074219 502.734375 469.929688 501.09375 443.402344 C 499.769531 419.722656 498.316406 395.171875 511.792969 381.722656 C 519.847656 373.671875 532.585938 370.125 550.507812 370.980469 C 632.101562 375.132812 695.449219 368.007812 750.058594 348.675781 C 769.441406 341.867188 787.839844 333.351562 805.480469 323.191406 C 848.8125 298.417969 887.175781 263.054688 921.511719 216.75 Z M 486.9375 460.273438 C 481.144531 434.429688 475.144531 407.570312 487.273438 393.761719 C 494.375 385.695312 506.765625 382.535156 525.464844 384.078125 C 612.546875 391.511719 680.601562 385.65625 739.527344 365.921875 C 810.921875 341.84375 871.488281 296.34375 924.4375 226.433594 C 940.410156 205.484375 948.050781 177.964844 955.453125 151.34375 C 964.566406 118.8125 973.050781 88.15625 995.539062 72.925781 L 994.824219 72.011719 C 972.050781 87.40625 963.363281 118.367188 954.332031 151.042969 C 946.929688 177.664062 939.207031 205.039062 923.519531 225.824219 C 870.773438 295.429688 810.429688 340.992188 739.097656 364.84375 C 680.394531 384.636719 612.480469 390.414062 525.542969 382.898438 C 506.394531 381.234375 493.71875 384.554688 486.417969 392.929688 C 473.941406 407.128906 479.964844 434.355469 485.777344 460.5625 C 492.480469 490.617188 498.789062 519.003906 479.871094 529.902344 C 479.585938 530.066406 479.300781 530.230469 479.015625 530.394531 C 461.617188 539.660156 424.273438 541.277344 371.101562 535.148438 C 330.296875 530.425781 285.507812 521.742188 259.070312 514.992188 C 253.324219 513.566406 246.574219 511.390625 239.378906 509.09375 C 217.648438 502.289062 190.371094 493.75 172.855469 498.535156 C 138.921875 508.039062 143.78125 564.167969 146.308594 594.539062 C 146.964844 601.929688 147.453125 607.710938 147.222656 611.257812 L 148.402344 611.332031 C 148.554688 607.648438 148.066406 601.867188 147.40625 594.476562 C 144.839844 564.691406 140.085938 509.074219 173.308594 499.976562 C 190.457031 495.214844 217.511719 503.691406 239.097656 510.582031 C 246.296875 512.878906 253.042969 515.054688 258.933594 516.398438 C 302.835938 527.484375 437.597656 553.875 479.613281 531.753906 C 479.894531 531.59375 480.179688 531.429688 480.464844 531.265625 C 500.15625 519.730469 493.515625 489.453125 486.9375 460.273438 Z M 476.113281 555.941406 C 496.695312 543.324219 484.460938 509.257812 472.597656 476.492188 C 462.480469 448.40625 452.011719 419.382812 463.101562 405.414062 C 469.410156 397.613281 481.679688 394.902344 500.929688 397.074219 C 593.503906 407.789062 666.125 403.28125 729.285156 383 C 805.074219 358.664062 869.910156 310.707031 927.585938 236.175781 C 944.390625 214.367188 952.089844 185.304688 959.402344 157.214844 C 968.046875 124.195312 976.203125 92.96875 998.46875 77.679688 L 997.976562 76.828125 C 975.285156 92.363281 967.066406 123.8125 958.363281 157.054688 C 950.96875 185 943.414062 213.984375 926.667969 235.570312 C 869.195312 309.792969 804.503906 357.671875 728.933594 382.066406 C 665.917969 402.261719 593.4375 406.691406 501.089844 396.035156 C 481.390625 393.742188 468.691406 396.699219 462.183594 404.804688 C 450.6875 419.386719 460.722656 447.332031 471.519531 476.921875 C 483.136719 509.261719 495.1875 542.675781 475.539062 554.945312 C 454.464844 568.03125 397.542969 560.652344 365.59375 555.183594 C 316.628906 546.824219 271.050781 533.480469 253.058594 525.277344 C 235.824219 517.394531 193.519531 503.492188 172.367188 510.183594 C 138.152344 521.175781 148.839844 590.050781 152.859375 615.777344 C 153.316406 618.546875 153.753906 620.949219 153.921875 622.554688 L 155.164062 622.410156 C 154.910156 620.660156 154.558594 618.398438 154.101562 615.632812 C 150.164062 590.046875 139.601562 522.046875 172.738281 511.484375 C 191.714844 505.289062 230.769531 516.515625 252.472656 526.5625 C 290.492188 543.882812 437.070312 578.621094 475.339844 556.574219 C 475.542969 556.269531 475.828125 556.105469 476.113281 555.941406 Z M 476.113281 555.941406 " clip-rule="nonzero"/></clipPath><linearGradient x1="-37.59248" gradientTransform="matrix(1.42262, -0.819527, 0.819527, 1.42262, 31.449444, 411.930396)" y1="117.318001" x2="628.187006" gradientUnits="userSpaceOnUse" y2="117.318001" id="dee7558c85"><stop stop-opacity="1" stop-color="rgb(7.798767%, 11.399841%, 31.399536%)" offset="0"/><stop stop-opacity="1" stop-color="rgb(7.978821%, 11.399841%, 31.399536%)" offset="0.5"/><stop stop-opacity="1" stop-color="rgb(7.978821%, 11.399841%, 31.399536%)" offset="1"/></linearGradient></defs><g clip-path="url(#ce4b04076c)"><g clip-path="url(#3e097d0daf)"><g clip-path="url(#2f1f80eac8)"><g clip-path="url(#baaa885d81)"><path fill="url(#dee7558c85)" d="M -177.148438 173.472656 L 310.023438 1019.148438 L 1257.171875 473.523438 L 770.003906 -372.152344 Z M -177.148438 173.472656 " fill-rule="nonzero"/></g></g></g></g></svg>